<svg xmlns="http://www.w3.org/2000/svg" viewBox="0 0 360 165" role="img" aria-label="Tři způsoby šíření tepla: vedení, proudění, záření">
  <rect x="20" y="73" width="78" height="13" rx="3" fill="#cbd5e1" stroke="#94a3b8"/>
  <path d="M99 80 q 9 -13 1 -24 q 11 9 4 24 z" fill="#f59e0b"/>
  <g stroke="#dc2626" stroke-width="2" fill="none" stroke-linecap="round" stroke-linejoin="round"><line x1="84" y1="79" x2="40" y2="79"/><path d="M46 74 L40 79 L46 84"/></g>
  <text x="59" y="116" font-size="12" font-weight="700" fill="#1e40af" text-anchor="middle">vedení</text>
  <text x="59" y="132" font-size="9" fill="#6b7280" text-anchor="middle">v pevných látkách</text>
  <path d="M152 48 L152 96 Q152 105 161 105 L199 105 Q208 105 208 96 L208 48" fill="#dbeafe" stroke="#60a5fa" stroke-width="2"/>
  <g stroke="#dc2626" stroke-width="2" fill="none" stroke-linecap="round" stroke-linejoin="round"><path d="M172 98 C 164 80 176 66 180 56 C 184 66 196 80 188 98"/><path d="M176 62 L180 55 L185 61"/></g>
  <path d="M180 120 q 8 -11 1 -20 q 10 7 3 20 z" fill="#f59e0b"/>
  <text x="180" y="134" font-size="12" font-weight="700" fill="#1e40af" text-anchor="middle">proudění</text>
  <text x="180" y="150" font-size="9" fill="#6b7280" text-anchor="middle">v kapalinách a plynech</text>
  <circle cx="288" cy="58" r="17" fill="#fbbf24"/>
  <g stroke="#f59e0b" stroke-width="2" stroke-linecap="round"><line x1="288" y1="33" x2="288" y2="25"/><line x1="309" y1="40" x2="316" y2="34"/><line x1="267" y1="40" x2="260" y2="34"/></g>
  <g stroke="#dc2626" stroke-width="2" fill="none" stroke-linecap="round" stroke-linejoin="round"><path d="M298 76 q 7 5 0 11 q 7 5 0 11"/><path d="M294 103 L298 109 L304 104"/></g>
  <rect x="286" y="111" width="26" height="13" rx="2" fill="#94a3b8"/>
  <text x="299" y="146" font-size="12" font-weight="700" fill="#1e40af" text-anchor="middle">záření</text>
</svg>
