<svg xmlns="http://www.w3.org/2000/svg" viewBox="0 0 360 190" role="img" aria-label="Jaderné štěpení: neutron rozštěpí jádro uranu-235 na dvě lehčí jádra a tři neutrony">
  <circle cx="40" cy="95" r="11" fill="#9ca3af"/>
  <text x="40" y="99" font-size="11" font-weight="700" fill="#ffffff" text-anchor="middle">n</text>
  <g fill="none" stroke="#1f2937" stroke-width="2" stroke-linecap="round" stroke-linejoin="round">
    <line x1="56" y1="95" x2="92" y2="95"/><path d="M85 90 L92 95 L85 100"/>
  </g>
  <circle cx="128" cy="95" r="28" fill="#c7d2fe" stroke="#6366f1" stroke-width="2"/>
  <text x="128" y="100" font-size="14" font-weight="700" fill="#3730a3" text-anchor="middle">²³⁵U</text>
  <g fill="none" stroke="#1f2937" stroke-width="2" stroke-linecap="round" stroke-linejoin="round">
    <line x1="162" y1="95" x2="198" y2="95"/><path d="M191 90 L198 95 L191 100"/>
  </g>
  <circle cx="250" cy="58" r="20" fill="#fde68a" stroke="#d97706" stroke-width="2"/>
  <circle cx="250" cy="132" r="20" fill="#fde68a" stroke="#d97706" stroke-width="2"/>
  <g fill="#9ca3af">
    <circle cx="314" cy="95" r="8"/><circle cx="302" cy="40" r="8"/><circle cx="302" cy="150" r="8"/>
  </g>
  <g fill="none" stroke="#9ca3af" stroke-width="1.8" stroke-linecap="round" stroke-linejoin="round">
    <line x1="290" y1="95" x2="324" y2="95"/>
    <line x1="284" y1="62" x2="308" y2="40"/>
    <line x1="284" y1="128" x2="308" y2="150"/>
  </g>
  <g font-family="ui-sans-serif, system-ui, sans-serif" text-anchor="middle">
    <text x="250" y="62" font-size="10" fill="#92400e">jádro</text>
    <text x="250" y="136" font-size="10" fill="#92400e">jádro</text>
    <text x="320" y="180" font-size="11" fill="#6b7280">+ 3 neutrony</text>
  </g>
</svg>
