<svg xmlns="http://www.w3.org/2000/svg" viewBox="0 0 360 200" role="img" aria-label="Skupenské přechody mezi pevným, kapalným a plynným skupenstvím">
  <g fill="#dbeafe" stroke="#3b82f6" stroke-width="2">
    <rect x="30" y="98" width="74" height="46" rx="6"/>
    <rect x="143" y="98" width="74" height="46" rx="6"/>
    <rect x="256" y="98" width="74" height="46" rx="6"/>
  </g>
  <g font-family="ui-sans-serif, system-ui, sans-serif" font-weight="700" text-anchor="middle" fill="#1e3a8a" font-size="13">
    <text x="67" y="126">pevné</text>
    <text x="180" y="126">kapalné</text>
    <text x="293" y="126">plynné</text>
  </g>
  <g fill="none" stroke="#1f2937" stroke-width="2" stroke-linecap="round" stroke-linejoin="round">
    <line x1="106" y1="112" x2="139" y2="112"/><path d="M133 108 L139 112 L133 116"/>
    <line x1="141" y1="130" x2="108" y2="130"/><path d="M114 126 L108 130 L114 134"/>
    <line x1="219" y1="112" x2="252" y2="112"/><path d="M246 108 L252 112 L246 116"/>
    <line x1="254" y1="130" x2="221" y2="130"/><path d="M227 126 L221 130 L227 134"/>
  </g>
  <g fill="none" stroke="#7c3aed" stroke-width="2" stroke-linecap="round" stroke-linejoin="round">
    <path d="M82 96 C 140 32 220 32 278 96"/><path d="M272 86 L278 96 L268 94"/>
    <path d="M276 80 C 220 56 140 56 84 80"/><path d="M90 71 L84 80 L94 81"/>
  </g>
  <g font-family="ui-sans-serif, system-ui, sans-serif" font-size="11" text-anchor="middle">
    <text x="122" y="106" fill="#374151">tání</text>
    <text x="122" y="146" fill="#374151">tuhnutí</text>
    <text x="236" y="106" fill="#374151">vypařování</text>
    <text x="236" y="146" fill="#374151">kapalnění</text>
    <text x="180" y="28" fill="#7c3aed" font-weight="700">sublimace</text>
    <text x="180" y="74" fill="#7c3aed" font-weight="700">desublimace</text>
  </g>
</svg>
